<svg width="61" height="72" viewBox="0 0 61 72" fill="none" xmlns="http://www.w3.org/2000/svg">
<path d="M1.32031 44.0137C1.32031 43.5078 1.44564 43.0498 1.69629 42.6396C1.94694 42.2249 2.2819 41.8945 2.70117 41.6484C3.12044 41.4023 3.58529 41.2793 4.0957 41.2793H9.18848V42.7148H4.0957C3.72656 42.7148 3.41211 42.8424 3.15234 43.0977C2.89258 43.3483 2.7627 43.6536 2.7627 44.0137V48.293C2.7627 48.6393 2.89258 48.9378 3.15234 49.1885C3.41211 49.4346 3.72656 49.5576 4.0957 49.5576H9.18848V51H4.0957C3.58529 51 3.12044 50.8792 2.70117 50.6377C2.2819 50.3962 1.94694 50.0726 1.69629 49.667C1.44564 49.2568 1.32031 48.8057 1.32031 48.3135V44.0137ZM10.7334 50.1797C10.7334 49.9336 10.82 49.724 10.9932 49.5508C11.1663 49.3776 11.376 49.291 11.6221 49.291C11.8727 49.291 12.0824 49.3776 12.251 49.5508C12.4242 49.7194 12.5107 49.929 12.5107 50.1797C12.5107 50.4303 12.4242 50.6423 12.251 50.8154C12.0824 50.984 11.8727 51.0684 11.6221 51.0684C11.376 51.0684 11.1663 50.9818 10.9932 50.8086C10.82 50.6354 10.7334 50.4258 10.7334 50.1797ZM14.2539 41.2793H20.7617V42.7148H15.6963V51H14.2539V41.2793ZM16.5166 45.2236H20.7617V46.6592H16.5166V45.2236ZM22.2656 46.4746C22.2656 46.0052 22.3796 45.5768 22.6074 45.1895C22.8398 44.8021 23.1497 44.4945 23.5371 44.2666C23.9245 44.0342 24.3529 43.918 24.8223 43.918H26.3672C26.8366 43.918 27.265 44.0342 27.6523 44.2666C28.0397 44.4945 28.3473 44.8021 28.5752 45.1895C28.8076 45.5768 28.9238 46.0052 28.9238 46.4746V48.4434C28.9238 48.9128 28.8076 49.3411 28.5752 49.7285C28.3473 50.1159 28.0397 50.4258 27.6523 50.6582C27.265 50.8861 26.8366 51 26.3672 51H24.8223C24.3529 51 23.9245 50.8861 23.5371 50.6582C23.1497 50.4258 22.8398 50.1159 22.6074 49.7285C22.3796 49.3411 22.2656 48.9128 22.2656 48.4434V46.4746ZM23.708 48.4297C23.708 48.7396 23.8174 49.0062 24.0361 49.2295C24.2549 49.4482 24.5169 49.5576 24.8223 49.5576H26.3672C26.6771 49.5576 26.9391 49.4482 27.1533 49.2295C27.3721 49.0062 27.4814 48.7396 27.4814 48.4297V46.4883C27.4814 46.1784 27.3721 45.9141 27.1533 45.6953C26.9391 45.472 26.6771 45.3604 26.3672 45.3604H24.8223C24.5169 45.3604 24.2549 45.472 24.0361 45.6953C23.8174 45.9141 23.708 46.1784 23.708 46.4883V48.4297ZM30.4961 41.2793H31.9385V43.918H34.167C34.6592 43.918 35.1058 44.0342 35.5068 44.2666C35.9124 44.4945 36.2337 44.8021 36.4707 45.1895C36.7122 45.5723 36.833 45.9984 36.833 46.4678V51H35.3906V46.4883C35.3906 46.1875 35.2676 45.9255 35.0215 45.7021C34.7799 45.4743 34.4951 45.3604 34.167 45.3604H31.9385V51H30.4961V41.2793ZM38.4805 45.9004C38.4805 45.5358 38.5716 45.2031 38.7539 44.9023C38.9408 44.6016 39.1868 44.3623 39.4922 44.1846C39.8021 44.0068 40.1439 43.918 40.5176 43.918H42.0967V45.3535H40.5176C40.3535 45.3535 40.2122 45.4105 40.0938 45.5244C39.9798 45.6338 39.9229 45.7682 39.9229 45.9277V51H38.4805V45.9004ZM43.4023 45.3809C43.4023 44.9753 43.5505 44.6312 43.8467 44.3486C44.1429 44.0615 44.4984 43.918 44.9131 43.918H47.8662C48.2445 43.918 48.5863 44.0114 48.8916 44.1982C49.2015 44.3805 49.4476 44.6289 49.6299 44.9434C49.8167 45.2533 49.9102 45.5973 49.9102 45.9756V46.1738C49.9102 46.5475 49.8167 46.8893 49.6299 47.1992C49.4476 47.5046 49.2015 47.7507 48.8916 47.9375C48.5863 48.1198 48.2445 48.2109 47.8662 48.2109H45.665V46.7754H47.8799C48.0439 46.7754 48.1829 46.7161 48.2969 46.5977C48.4154 46.4792 48.4746 46.3356 48.4746 46.167V45.9756C48.4746 45.8024 48.4154 45.6566 48.2969 45.5381C48.1829 45.4196 48.0439 45.3604 47.8799 45.3604H44.8447V48.9971C44.8447 49.152 44.8971 49.2842 45.002 49.3936C45.1068 49.5029 45.2344 49.5576 45.3848 49.5576H49.4111V51H45.3848C45.0202 51 44.6875 50.9111 44.3867 50.7334C44.0859 50.5511 43.8467 50.3096 43.6689 50.0088C43.4912 49.7035 43.4023 49.3685 43.4023 49.0039V45.3809ZM51.4824 45.9004C51.4824 45.5358 51.5736 45.2031 51.7559 44.9023C51.9427 44.6016 52.1888 44.3623 52.4941 44.1846C52.804 44.0068 53.1458 43.918 53.5195 43.918H55.0986V45.3535H53.5195C53.3555 45.3535 53.2142 45.4105 53.0957 45.5244C52.9818 45.6338 52.9248 45.7682 52.9248 45.9277V51H51.4824V45.9004Z" fill="#F8F5EC"/>
<path d="M3.986 67.112C3.47267 67.112 3.006 66.9907 2.586 66.748C2.166 66.496 1.83 66.1507 1.578 65.712C1.33533 65.2733 1.214 64.7787 1.214 64.228C1.214 63.64 1.34 63.1313 1.592 62.702C1.844 62.2727 2.18467 61.9413 2.614 61.708C3.05267 61.4747 3.53333 61.358 4.056 61.358C4.57867 61.358 5.07333 61.4933 5.54 61.764C6.016 62.0347 6.36133 62.3893 6.576 62.828L6.464 63.136V56.36H7.122V67H6.45V65.32L6.59 65.628C6.35667 66.0667 6.00667 66.426 5.54 66.706C5.07333 66.9767 4.55533 67.112 3.986 67.112ZM4.154 66.538C4.574 66.538 4.952 66.4493 5.288 66.272C5.624 66.0853 5.89467 65.838 6.1 65.53C6.30533 65.2127 6.422 64.858 6.45 64.466V63.766C6.38467 63.4113 6.24 63.094 6.016 62.814C5.792 62.534 5.52133 62.3147 5.204 62.156C4.88667 61.988 4.53667 61.904 4.154 61.904C3.734 61.904 3.35133 62.002 3.006 62.198C2.66067 62.394 2.38533 62.6647 2.18 63.01C1.97467 63.3553 1.872 63.7567 1.872 64.214C1.872 64.6433 1.97467 65.0353 2.18 65.39C2.38533 65.7353 2.66067 66.0153 3.006 66.23C3.36067 66.4353 3.74333 66.538 4.154 66.538ZM11.9873 67.112C11.418 67.112 10.914 66.986 10.4753 66.734C10.0367 66.482 9.69133 66.1413 9.43933 65.712C9.19666 65.2733 9.07533 64.7833 9.07533 64.242C9.07533 63.71 9.20599 63.2247 9.46733 62.786C9.72866 62.3473 10.0787 61.9973 10.5173 61.736C10.9653 61.4747 11.46 61.344 12.0013 61.344C12.6547 61.344 13.2007 61.5353 13.6393 61.918C14.0873 62.3007 14.4093 62.8 14.6053 63.416L9.81733 65.264L9.62133 64.788L14.0033 63.08L13.8633 63.276C13.7047 62.9027 13.462 62.5807 13.1353 62.31C12.818 62.0393 12.426 61.904 11.9593 61.904C11.5393 61.904 11.1613 62.0067 10.8253 62.212C10.4893 62.4173 10.2187 62.6927 10.0133 63.038C9.81733 63.3833 9.71933 63.7753 9.71933 64.214C9.71933 64.6247 9.81266 65.0073 9.99933 65.362C10.1953 65.7167 10.466 66.0013 10.8113 66.216C11.1567 66.4307 11.5533 66.538 12.0013 66.538C12.3 66.538 12.5847 66.482 12.8553 66.37C13.1353 66.258 13.3827 66.1133 13.5973 65.936L13.9333 66.412C13.672 66.6173 13.3687 66.7853 13.0233 66.916C12.6873 67.0467 12.342 67.112 11.9873 67.112ZM18.2245 67.21L15.4525 61.526H16.2225L18.5045 66.496L18.0985 66.482L20.2965 61.526H21.0245L18.3085 67.21H18.2245ZM24.9756 67.112C24.4063 67.112 23.9023 66.986 23.4636 66.734C23.0249 66.482 22.6796 66.1413 22.4276 65.712C22.1849 65.2733 22.0636 64.7833 22.0636 64.242C22.0636 63.71 22.1943 63.2247 22.4556 62.786C22.7169 62.3473 23.0669 61.9973 23.5056 61.736C23.9536 61.4747 24.4483 61.344 24.9896 61.344C25.6429 61.344 26.1889 61.5353 26.6276 61.918C27.0756 62.3007 27.3976 62.8 27.5936 63.416L22.8056 65.264L22.6096 64.788L26.9916 63.08L26.8516 63.276C26.6929 62.9027 26.4503 62.5807 26.1236 62.31C25.8063 62.0393 25.4143 61.904 24.9476 61.904C24.5276 61.904 24.1496 62.0067 23.8136 62.212C23.4776 62.4173 23.2069 62.6927 23.0016 63.038C22.8056 63.3833 22.7076 63.7753 22.7076 64.214C22.7076 64.6247 22.8009 65.0073 22.9876 65.362C23.1836 65.7167 23.4543 66.0013 23.7996 66.216C24.1449 66.4307 24.5416 66.538 24.9896 66.538C25.2883 66.538 25.5729 66.482 25.8436 66.37C26.1236 66.258 26.3709 66.1133 26.5856 65.936L26.9216 66.412C26.6603 66.6173 26.3569 66.7853 26.0116 66.916C25.6756 67.0467 25.3303 67.112 24.9756 67.112ZM29.4179 56.36H30.0759V67H29.4179V56.36ZM32.0304 64.228C32.0304 63.696 32.1564 63.2107 32.4084 62.772C32.6697 62.3333 33.0197 61.988 33.4584 61.736C33.9064 61.4747 34.4057 61.344 34.9564 61.344C35.5164 61.344 36.0157 61.4747 36.4544 61.736C36.8931 61.988 37.2384 62.3333 37.4904 62.772C37.7424 63.2107 37.8684 63.696 37.8684 64.228C37.8684 64.76 37.7424 65.2453 37.4904 65.684C37.2384 66.1227 36.8884 66.4727 36.4404 66.734C36.0017 66.986 35.5071 67.112 34.9564 67.112C34.3964 67.112 33.8971 66.9907 33.4584 66.748C33.0197 66.496 32.6697 66.1553 32.4084 65.726C32.1564 65.2873 32.0304 64.788 32.0304 64.228ZM32.6884 64.242C32.6884 64.6713 32.7864 65.0633 32.9824 65.418C33.1877 65.7633 33.4584 66.0387 33.7944 66.244C34.1397 66.4493 34.5224 66.552 34.9424 66.552C35.3624 66.552 35.7404 66.4493 36.0764 66.244C36.4217 66.0387 36.6924 65.7633 36.8884 65.418C37.0937 65.0633 37.1964 64.6713 37.1964 64.242C37.1964 63.8127 37.0937 63.4253 36.8884 63.08C36.6924 62.7253 36.4217 62.4453 36.0764 62.24C35.7404 62.0253 35.3624 61.918 34.9424 61.918C34.5131 61.918 34.1257 62.03 33.7804 62.254C33.4444 62.4687 33.1784 62.7533 32.9824 63.108C32.7864 63.4627 32.6884 63.8407 32.6884 64.242ZM42.8462 67.112C42.3235 67.112 41.8335 66.9767 41.3762 66.706C40.9188 66.426 40.5828 66.0667 40.3682 65.628L40.4802 65.39V69.632H39.8222V61.484H40.4102L40.4802 63.276L40.3542 62.87C40.5968 62.4313 40.9515 62.072 41.4182 61.792C41.8848 61.5027 42.3935 61.358 42.9442 61.358C43.4668 61.358 43.9382 61.484 44.3582 61.736C44.7782 61.988 45.1095 62.3333 45.3522 62.772C45.6042 63.2013 45.7302 63.696 45.7302 64.256C45.7302 64.8067 45.5995 65.3013 45.3382 65.74C45.0862 66.1693 44.7408 66.5053 44.3022 66.748C43.8728 66.9907 43.3875 67.112 42.8462 67.112ZM42.7342 66.566C43.1635 66.566 43.5508 66.4633 43.8962 66.258C44.2508 66.0527 44.5308 65.7773 44.7362 65.432C44.9508 65.0773 45.0582 64.6853 45.0582 64.256C45.0582 63.8173 44.9555 63.4253 44.7502 63.08C44.5448 62.7253 44.2695 62.4453 43.9242 62.24C43.5882 62.0347 43.2055 61.932 42.7762 61.932C42.3655 61.932 41.9922 62.0253 41.6562 62.212C41.3202 62.3987 41.0495 62.6507 40.8442 62.968C40.6388 63.2853 40.5175 63.6447 40.4802 64.046V64.494C40.5082 64.8767 40.6248 65.2267 40.8302 65.544C41.0448 65.8613 41.3155 66.1133 41.6422 66.3C41.9782 66.4773 42.3422 66.566 42.7342 66.566ZM50.0635 67.112C49.4942 67.112 48.9902 66.986 48.5515 66.734C48.1128 66.482 47.7675 66.1413 47.5155 65.712C47.2728 65.2733 47.1515 64.7833 47.1515 64.242C47.1515 63.71 47.2822 63.2247 47.5435 62.786C47.8048 62.3473 48.1548 61.9973 48.5935 61.736C49.0415 61.4747 49.5362 61.344 50.0775 61.344C50.7308 61.344 51.2768 61.5353 51.7155 61.918C52.1635 62.3007 52.4855 62.8 52.6815 63.416L47.8935 65.264L47.6975 64.788L52.0795 63.08L51.9395 63.276C51.7808 62.9027 51.5382 62.5807 51.2115 62.31C50.8942 62.0393 50.5022 61.904 50.0355 61.904C49.6155 61.904 49.2375 62.0067 48.9015 62.212C48.5655 62.4173 48.2948 62.6927 48.0895 63.038C47.8935 63.3833 47.7955 63.7753 47.7955 64.214C47.7955 64.6247 47.8888 65.0073 48.0755 65.362C48.2715 65.7167 48.5422 66.0013 48.8875 66.216C49.2328 66.4307 49.6295 66.538 50.0775 66.538C50.3762 66.538 50.6608 66.482 50.9315 66.37C51.2115 66.258 51.4588 66.1133 51.6735 65.936L52.0095 66.412C51.7482 66.6173 51.4448 66.7853 51.0995 66.916C50.7635 67.0467 50.4182 67.112 50.0635 67.112ZM55.0798 61.526L55.1498 63.206L55.0658 62.996C55.1871 62.66 55.3784 62.3707 55.6398 62.128C55.9011 61.8853 56.1904 61.6987 56.5078 61.568C56.8344 61.4373 57.1471 61.372 57.4458 61.372L57.4178 62.016C56.9978 62.016 56.6151 62.1093 56.2698 62.296C55.9338 62.4827 55.6631 62.7347 55.4578 63.052C55.2618 63.36 55.1638 63.71 55.1638 64.102V67H54.5058V61.526H55.0798Z" fill="#262E34"/>
<path d="M17.1406 27.8594C16.6354 27.8438 16.1979 27.7266 15.8281 27.5078C15.4583 27.2891 15.151 27 14.9062 26.6406C14.6719 26.2969 14.4948 25.9115 14.375 25.4844C14.2552 25.0625 14.1953 24.6432 14.1953 24.2266V22.9062C14.1953 22.1562 14.0156 21.612 13.6562 21.2734C13.3021 20.9349 12.7578 20.763 12.0234 20.7578V19.625C12.7578 19.625 13.3021 19.4583 13.6562 19.125C14.0156 18.7865 14.1953 18.2396 14.1953 17.4844V16.1562C14.1953 15.7344 14.25 15.3047 14.3594 14.8672C14.474 14.4245 14.6536 14.0286 14.8984 13.6797C15.1276 13.3464 15.4271 13.0755 15.7969 12.8672C16.1667 12.6536 16.6146 12.5391 17.1406 12.5234L17.3047 13.4219C16.9297 13.4323 16.6302 13.5208 16.4062 13.6875C16.1875 13.8542 16.0234 14.0651 15.9141 14.3203C15.7995 14.5807 15.7266 14.8724 15.6953 15.1953C15.6641 15.5182 15.6484 15.8385 15.6484 16.1562V17.4844C15.6484 18.1094 15.5026 18.6589 15.2109 19.1328C14.9245 19.6016 14.4792 19.9583 13.875 20.2031C14.4792 20.4427 14.9245 20.7995 15.2109 21.2734C15.4974 21.7422 15.6432 22.2865 15.6484 22.9062V24.2266C15.6484 24.5495 15.6745 24.8698 15.7266 25.1875C15.7786 25.5104 15.8698 25.7995 16 26.0547C16.125 26.3151 16.2917 26.5286 16.5 26.6953C16.7135 26.862 16.9818 26.9505 17.3047 26.9609L17.1406 27.8594Z" fill="#F8F5EC"/>
<path d="M42.0234 26.9609C42.3411 26.9505 42.6068 26.862 42.8203 26.6953C43.0339 26.5286 43.2057 26.3151 43.3359 26.0547C43.4609 25.7995 43.5495 25.5104 43.6016 25.1875C43.6589 24.8698 43.6875 24.5495 43.6875 24.2266V22.9062C43.6875 22.4948 43.7474 22.1146 43.8672 21.7656C43.9922 21.4167 44.1823 21.1146 44.4375 20.8594C44.5729 20.724 44.724 20.6016 44.8906 20.4922C45.0625 20.3828 45.25 20.2865 45.4531 20.2031C45.2448 20.1198 45.0521 20.0208 44.875 19.9062C44.7031 19.7917 44.5521 19.6641 44.4219 19.5234C44.1719 19.263 43.987 18.9609 43.8672 18.6172C43.7474 18.2682 43.6875 17.8906 43.6875 17.4844V16.1562C43.6875 15.8385 43.6693 15.5182 43.6328 15.1953C43.6016 14.8724 43.5312 14.5807 43.4219 14.3203C43.3073 14.0651 43.1406 13.8542 42.9219 13.6875C42.7031 13.5208 42.4062 13.4323 42.0312 13.4219L42.1875 12.5234C42.6927 12.5391 43.125 12.6458 43.4844 12.8438C43.849 13.0417 44.1484 13.2995 44.3828 13.6172C44.6484 13.9766 44.8385 14.3802 44.9531 14.8281C45.0729 15.276 45.1328 15.7188 45.1328 16.1562V17.4844C45.1328 17.7969 45.1615 18.0729 45.2188 18.3125C45.2812 18.5469 45.3724 18.75 45.4922 18.9219C45.6641 19.1667 45.901 19.3464 46.2031 19.4609C46.5104 19.5703 46.8776 19.625 47.3047 19.625V20.7578C46.9297 20.763 46.6016 20.8099 46.3203 20.8984C46.0443 20.9818 45.8177 21.1146 45.6406 21.2969C45.4688 21.474 45.3411 21.6953 45.2578 21.9609C45.1745 22.2266 45.1328 22.5417 45.1328 22.9062V24.2266C45.1328 24.6432 45.0755 25.0625 44.9609 25.4844C44.8464 25.9115 44.6693 26.2995 44.4297 26.6484C44.1849 26.9974 43.8776 27.2839 43.5078 27.5078C43.138 27.7318 42.6979 27.849 42.1875 27.8594L42.0234 26.9609Z" fill="#F8F5EC"/>
<path d="M35.6745 35H43.1913L53.5 20.3285L43.1913 5H35.6745L21.7148 35H14.8423L5.5 20.3285L14.8423 5H21.7148" stroke="#262E34" stroke-opacity="0.8" stroke-width="4" stroke-linecap="round"/>
</svg>
